<svg width="18" height="18" viewBox="0 0 18 18" fill="none" xmlns="http://www.w3.org/2000/svg">
<path d="M6.72028 10.6877C6.16977 10.6877 5.63161 10.5245 5.17385 10.2187C4.7161 9.91289 4.35933 9.47818 4.14865 8.96958C3.93797 8.46097 3.88285 7.90131 3.99026 7.36138C4.09768 6.82145 4.3628 6.3255 4.7521 5.93625L7.62422 3.06525C8.14622 2.54325 8.8542 2.25 9.59241 2.25C10.3306 2.25 11.0386 2.54325 11.5606 3.06525C12.0826 3.58725 12.3758 4.29522 12.3758 5.03344C12.3758 5.77165 12.0826 6.47963 11.5606 7.00162L11.2495 7.31212L10.4536 6.51731L10.7669 6.204C11.0768 5.89265 11.2506 5.47112 11.2501 5.03185C11.2497 4.59257 11.0751 4.17138 10.7647 3.86062C10.4487 3.55906 10.0286 3.3908 9.59185 3.3908C9.15505 3.3908 8.73503 3.55906 8.41903 3.86062L5.54803 6.73163C5.39391 6.88558 5.27164 7.0684 5.18822 7.26964C5.1048 7.47088 5.06186 7.68659 5.06186 7.90444C5.06186 8.12228 5.1048 8.33799 5.18822 8.53923C5.27164 8.74047 5.39391 8.9233 5.54803 9.07725C5.86403 9.37882 6.28404 9.54707 6.72085 9.54707C7.15765 9.54707 7.57766 9.37882 7.89366 9.07725L8.68903 9.87263C8.43105 10.1319 8.12421 10.3374 7.78628 10.4773C7.44835 10.6172 7.08603 10.6887 6.72028 10.6877Z" fill="#3D3D3D"/>
<path d="M11.2203 9.56269C10.6698 9.56274 10.1316 9.39953 9.67385 9.09371C9.2161 8.78789 8.85933 8.35318 8.64865 7.84458C8.43797 7.33597 8.38285 6.77631 8.49026 6.23638C8.59768 5.69645 8.8628 5.2005 9.2521 4.81125L9.56316 4.50075L10.3585 5.29669L10.048 5.60719C9.73707 5.91817 9.56237 6.33994 9.56237 6.77972C9.56237 7.2195 9.73707 7.64127 10.048 7.95225C10.364 8.25382 10.784 8.42207 11.2208 8.42207C11.6576 8.42207 12.0777 8.25382 12.3937 7.95225L15.2652 5.08069C15.5756 4.76951 15.7499 4.34794 15.7499 3.90844C15.7499 3.46893 15.5756 3.04736 15.2652 2.73619C14.9492 2.43462 14.5292 2.26636 14.0924 2.26636C13.6556 2.26636 13.2356 2.43462 12.9196 2.73619L12.1242 1.94025C12.6462 1.41825 13.3542 1.125 14.0924 1.125C14.8306 1.125 15.5386 1.41825 16.0606 1.94025C16.5826 2.46225 16.8758 3.17022 16.8758 3.90844C16.8758 4.64665 16.5826 5.35463 16.0606 5.87662L13.1896 8.74706C12.9316 9.00637 12.6248 9.21197 12.2869 9.35197C11.9489 9.49196 11.5861 9.56358 11.2203 9.56269Z" fill="#3D3D3D"/>
<path d="M13.5 16.875H2.25C1.95172 16.8747 1.66575 16.7561 1.45483 16.5452C1.24392 16.3343 1.1253 16.0483 1.125 15.75V4.5C1.1253 4.20172 1.24392 3.91575 1.45483 3.70483C1.66575 3.49392 1.95172 3.3753 2.25 3.375H4.5V4.5H2.25V15.75H13.5V10.125H14.625V15.75C14.6247 16.0483 14.5061 16.3343 14.2952 16.5452C14.0843 16.7561 13.7983 16.8747 13.5 16.875Z" fill="#3D3D3D"/>
</svg>
