<svg width="27" height="26" viewBox="0 0 27 26" fill="none" xmlns="http://www.w3.org/2000/svg">
<rect width="26.6019" height="26" rx="2" fill="#E4E7FB"/>
<path d="M9.18781 7.16667V5.65H17.414V7.16667V7.31667H17.564H19.2693C19.6992 7.31667 20.063 7.46466 20.3688 7.76352C20.6745 8.06229 20.8245 8.41622 20.8245 8.83333V9.66667C20.8245 10.6844 20.48 11.5686 19.7874 12.3259C19.0944 13.0837 18.2359 13.5218 17.2055 13.6427L17.1169 13.6531L17.0837 13.7359C16.8379 14.3499 16.4529 14.8595 15.9268 15.2668C15.3979 15.6764 14.7967 15.9553 14.1214 16.1035L14.0036 16.1293V16.25V18.8333V18.9833H14.1536H17.414V20.35H9.18781V18.9833H12.4483H12.5983V18.8333V16.25V16.1293L12.4805 16.1035C11.8052 15.9553 11.204 15.6764 10.675 15.2668C10.1489 14.8595 9.76392 14.3499 9.51812 13.7359L9.48495 13.6531L9.39634 13.6427C8.366 13.5218 7.5075 13.0837 6.81445 12.3259C6.1219 11.5686 5.77732 10.6844 5.77732 9.66667V8.83333C5.77732 8.41622 5.9274 8.06229 6.23308 7.76352C6.53887 7.46466 6.90262 7.31667 7.33257 7.31667H9.03781H9.18781V7.16667ZM8.98789 12.1414L9.18781 12.212V12V8.83333V8.68333H9.03781H7.33257H7.18257V8.83333V9.66667C7.18257 10.2264 7.3491 10.7333 7.68082 11.1828C8.01183 11.6313 8.44893 11.9512 8.98789 12.1414ZM16.0088 7.16667V7.01667H15.8588H10.7431H10.5931V7.16667V12.1667C10.5931 12.9016 10.8581 13.5305 11.3843 14.0448C11.9103 14.5589 12.5522 14.8167 13.3009 14.8167C14.0497 14.8167 14.6915 14.5589 15.2176 14.0448C15.7438 13.5305 16.0088 12.9016 16.0088 12.1667V7.16667ZM17.414 12V12.212L17.614 12.1414C18.1529 11.9512 18.59 11.6313 18.921 11.1828C19.2528 10.7333 19.4193 10.2264 19.4193 9.66667V8.83333V8.68333H19.2693H17.564H17.414V8.83333V12Z" fill="#0E399A" stroke="#E4E7FB" stroke-width="0.3"/>
</svg>
